<?xml version="1.0" standalone="no"?>
<!DOCTYPE svg PUBLIC "-//W3C//DTD SVG 20010904//EN"
 "http://www.w3.org/TR/2001/REC-SVG-20010904/DTD/svg10.dtd">
<svg version="1.0" xmlns="http://www.w3.org/2000/svg"
 width="52.000000pt" height="52.000000pt" viewBox="0 0 52.000000 52.000000"
 preserveAspectRatio="xMidYMid meet">

<g transform="translate(0.000000,52.000000) scale(0.100000,-0.100000)"
fill="#000000" stroke="none">
<path d="M180 500 c-17 -17 -20 -33 -20 -110 l0 -90 -45 0 c-25 0 -45 -3 -45
-7 0 -15 175 -183 190 -183 15 0 190 168 190 183 0 4 -20 7 -45 7 l-45 0 0 90
c0 115 -12 130 -100 130 -47 0 -64 -4 -80 -20z"/>
<path d="M0 90 c0 -37 5 -55 20 -70 19 -19 33 -20 240 -20 207 0 221 1 240 20
15 15 20 33 20 70 0 43 -3 50 -19 50 -17 0 -20 -8 -23 -47 l-3 -48 -215 0
-215 0 -3 48 c-3 39 -6 47 -23 47 -16 0 -19 -7 -19 -50z"/>
</g>
</svg>
